<svg xmlns="http://www.w3.org/2000/svg" viewBox="0 0 32 32" fill="none">
  <defs>
    <linearGradient id="wg" x1="0" y1="0" x2="1" y2="1">
      <stop offset="0%" stop-color="#fbbf24"/>
      <stop offset="100%" stop-color="#d97706"/>
    </linearGradient>
    <radialGradient id="gl" cx="45%" cy="35%" r="55%">
      <stop offset="0%" stop-color="#f59e0b" stop-opacity="0.14"/>
      <stop offset="100%" stop-color="#f59e0b" stop-opacity="0"/>
    </radialGradient>
  </defs>

  <!-- Background -->
  <rect width="32" height="32" rx="7" fill="#111"/>
  <rect width="32" height="32" rx="7" fill="url(#gl)"/>

  <!-- PCB trace lines (simplified, visible at 32px) -->
  <line x1="9"  y1="14" x2="15" y2="14" stroke="#f59e0b" stroke-width="0.7" opacity="0.35"/>
  <line x1="15" y1="14" x2="15" y2="18" stroke="#f59e0b" stroke-width="0.7" opacity="0.35"/>
  <line x1="15" y1="18" x2="21" y2="18" stroke="#f59e0b" stroke-width="0.7" opacity="0.35"/>
  <circle cx="15" cy="14" r="1.1" fill="#f59e0b" opacity="0.55"/>
  <circle cx="15" cy="18" r="1.1" fill="#f59e0b" opacity="0.55"/>

  <!-- Wrench: translate centers bbox at (16,16) -->
  <g transform="translate(12,18) scale(0.322)">
    <path d="M28 -44a28 28 0 0 0-31.3 37.8L-26 17.4a10 10 0 1 0 14.1 14.1
             L11.7 8.1A28 28 0 0 0 48.5 -23.2l-16.2 16.2-10.8-10.8 16.2-16.2z"
          fill="url(#wg)"/>
    <circle cx="-18" cy="24" r="6.5" fill="#7c2d12"/>
    <circle cx="-18" cy="24" r="3.5" fill="#111" opacity="0.7"/>
  </g>
</svg>
